<?xml version="1.0" encoding="UTF-8" standalone="no"?>
<!DOCTYPE svg PUBLIC "-//W3C//DTD SVG 1.1//EN"
 "http://www.w3.org/Graphics/SVG/1.1/DTD/svg11.dtd">
<!-- Generated by graphviz version 2.38.0 (20140413.2041)
 -->
<!-- Title: ff Pages: 1 -->
<svg width="596pt" height="404pt"
 viewBox="0.00 0.00 596.49 404.00" xmlns="http://www.w3.org/2000/svg" xmlns:xlink="http://www.w3.org/1999/xlink">
<g id="graph0" class="graph" transform="scale(1 1) rotate(0) translate(4 400)">
<title>ff</title>
<polygon fill="white" stroke="none" points="-4,4 -4,-400 592.491,-400 592.491,4 -4,4"/>
<!-- 10 -->
<g id="node1" class="node"><title>10</title>
<ellipse fill="none" stroke="black" cx="85.4911" cy="-234" rx="27" ry="18"/>
<text text-anchor="middle" x="85.4911" y="-230.3" font-family="Times,serif" font-size="14.00">10</text>
</g>
<!-- 1 -->
<g id="node2" class="node"><title>1</title>
<ellipse fill="none" stroke="black" cx="328.491" cy="-18" rx="27" ry="18"/>
<text text-anchor="middle" x="328.491" y="-14.3" font-family="Times,serif" font-size="14.00">1</text>
</g>
<!-- 10&#45;&gt;1 -->
<g id="edge1" class="edge"><title>10&#45;&gt;1</title>
<path fill="none" stroke="black" d="M62.7993,-223.767C45.2424,-215.266 22.1795,-200.802 11.4911,-180 4.17886,-165.769 4.48305,-158.384 11.4911,-144 61.8732,-40.5937 218.591,-22.1569 291.053,-19.2696"/>
<polygon fill="black" stroke="black" points="291.226,-22.7659 301.109,-18.9481 291.003,-15.7695 291.226,-22.7659"/>
</g>
<!-- 2 -->
<g id="node3" class="node"><title>2</title>
<ellipse fill="none" stroke="black" cx="195.491" cy="-90" rx="27" ry="18"/>
<text text-anchor="middle" x="195.491" y="-86.3" font-family="Times,serif" font-size="14.00">2</text>
</g>
<!-- 10&#45;&gt;2 -->
<g id="edge2" class="edge"><title>10&#45;&gt;2</title>
<path fill="none" stroke="black" d="M90.4846,-216.259C96.7185,-197.312 108.765,-166.202 126.491,-144 137.778,-129.862 153.606,-117.353 167.256,-108.042"/>
<polygon fill="black" stroke="black" points="169.406,-110.817 175.842,-102.401 165.562,-104.967 169.406,-110.817"/>
</g>
<!-- 3 -->
<g id="node4" class="node"><title>3</title>
<ellipse fill="none" stroke="black" cx="440.491" cy="-162" rx="27" ry="18"/>
<text text-anchor="middle" x="440.491" y="-158.3" font-family="Times,serif" font-size="14.00">3</text>
</g>
<!-- 10&#45;&gt;3 -->
<g id="edge3" class="edge"><title>10&#45;&gt;3</title>
<path fill="none" stroke="black" d="M110.442,-227.01C124.764,-223.637 143.104,-219.426 159.491,-216 247.188,-197.664 350.887,-178.841 404.444,-169.33"/>
<polygon fill="black" stroke="black" points="405.231,-172.745 414.467,-167.555 404.01,-165.852 405.231,-172.745"/>
</g>
<!-- 5 -->
<g id="node5" class="node"><title>5</title>
<ellipse fill="none" stroke="black" cx="47.4911" cy="-162" rx="27" ry="18"/>
<text text-anchor="middle" x="47.4911" y="-158.3" font-family="Times,serif" font-size="14.00">5</text>
</g>
<!-- 10&#45;&gt;5 -->
<g id="edge4" class="edge"><title>10&#45;&gt;5</title>
<path fill="none" stroke="black" d="M76.6776,-216.765C72.0734,-208.283 66.336,-197.714 61.1697,-188.197"/>
<polygon fill="black" stroke="black" points="64.1037,-186.266 56.2568,-179.147 57.9517,-189.606 64.1037,-186.266"/>
</g>
<!-- 2&#45;&gt;1 -->
<g id="edge17" class="edge"><title>2&#45;&gt;1</title>
<path fill="none" stroke="black" d="M215.981,-78.2159C238.078,-66.5858 273.47,-47.9586 298.655,-34.7031"/>
<polygon fill="black" stroke="black" points="300.54,-37.6664 307.759,-29.9117 297.28,-31.472 300.54,-37.6664"/>
</g>
<!-- 3&#45;&gt;1 -->
<g id="edge18" class="edge"><title>3&#45;&gt;1</title>
<path fill="none" stroke="black" d="M435.553,-144.215C429.369,-125.227 417.369,-94.0799 399.491,-72 387.898,-57.6825 371.613,-45.1614 357.563,-35.8895"/>
<polygon fill="black" stroke="black" points="359.043,-32.6835 348.724,-30.2795 355.292,-38.5935 359.043,-32.6835"/>
</g>
<!-- 5&#45;&gt;1 -->
<g id="edge31" class="edge"><title>5&#45;&gt;1</title>
<path fill="none" stroke="black" d="M61.8108,-146.689C81.9817,-127.259 120.656,-92.5986 159.491,-72 202.758,-49.0506 257.606,-34.1419 292.876,-26.1522"/>
<polygon fill="black" stroke="black" points="293.703,-29.5539 302.718,-23.9873 292.2,-22.7173 293.703,-29.5539"/>
</g>
<!-- 5&#45;&gt;2 -->
<g id="edge32" class="edge"><title>5&#45;&gt;2</title>
<path fill="none" stroke="black" d="M69.0116,-150.821C94.2215,-138.898 136.173,-119.056 164.793,-105.519"/>
<polygon fill="black" stroke="black" points="166.401,-108.631 173.945,-101.191 163.408,-102.303 166.401,-108.631"/>
</g>
<!-- 13 -->
<g id="node6" class="node"><title>13</title>
<ellipse fill="none" stroke="black" cx="383.491" cy="-306" rx="27" ry="18"/>
<text text-anchor="middle" x="383.491" y="-302.3" font-family="Times,serif" font-size="14.00">13</text>
</g>
<!-- 13&#45;&gt;1 -->
<g id="edge5" class="edge"><title>13&#45;&gt;1</title>
<path fill="none" stroke="black" d="M384.511,-287.778C386.282,-248.392 387.544,-149.188 361.491,-72 358.007,-61.6787 352.173,-51.2929 346.371,-42.4841"/>
<polygon fill="black" stroke="black" points="349.242,-40.4835 340.667,-34.2617 343.491,-44.4733 349.242,-40.4835"/>
</g>
<!-- 13&#45;&gt;2 -->
<g id="edge6" class="edge"><title>13&#45;&gt;2</title>
<path fill="none" stroke="black" d="M370.271,-289.952C337.775,-252.962 253.845,-157.424 215.336,-113.589"/>
<polygon fill="black" stroke="black" points="217.926,-111.234 208.696,-106.031 212.667,-115.854 217.926,-111.234"/>
</g>
<!-- 13&#45;&gt;3 -->
<g id="edge7" class="edge"><title>13&#45;&gt;3</title>
<path fill="none" stroke="black" d="M394.886,-289.437C401.929,-279.217 410.699,-265.32 416.491,-252 425.239,-231.88 431.501,-207.786 435.43,-189.744"/>
<polygon fill="black" stroke="black" points="438.868,-190.399 437.475,-179.896 432.015,-188.976 438.868,-190.399"/>
</g>
<!-- 4 -->
<g id="node7" class="node"><title>4</title>
<ellipse fill="none" stroke="black" cx="195.491" cy="-234" rx="27" ry="18"/>
<text text-anchor="middle" x="195.491" y="-230.3" font-family="Times,serif" font-size="14.00">4</text>
</g>
<!-- 13&#45;&gt;4 -->
<g id="edge8" class="edge"><title>13&#45;&gt;4</title>
<path fill="none" stroke="black" d="M360.439,-296.417C327.226,-284.05 265.763,-261.165 227.966,-247.092"/>
<polygon fill="black" stroke="black" points="229.031,-243.753 218.438,-243.544 226.588,-250.313 229.031,-243.753"/>
</g>
<!-- 6 -->
<g id="node8" class="node"><title>6</title>
<ellipse fill="none" stroke="black" cx="495.491" cy="-234" rx="27" ry="18"/>
<text text-anchor="middle" x="495.491" y="-230.3" font-family="Times,serif" font-size="14.00">6</text>
</g>
<!-- 13&#45;&gt;6 -->
<g id="edge9" class="edge"><title>13&#45;&gt;6</title>
<path fill="none" stroke="black" d="M402.49,-293.125C420.431,-281.913 447.542,-264.968 467.871,-252.263"/>
<polygon fill="black" stroke="black" points="469.774,-255.201 476.399,-246.933 466.064,-249.265 469.774,-255.201"/>
</g>
<!-- 4&#45;&gt;1 -->
<g id="edge19" class="edge"><title>4&#45;&gt;1</title>
<path fill="none" stroke="black" d="M205.488,-216.915C228.555,-179.799 285.629,-87.9656 313.157,-43.6727"/>
<polygon fill="black" stroke="black" points="316.254,-45.3204 318.56,-34.9795 310.309,-41.6253 316.254,-45.3204"/>
</g>
<!-- 4&#45;&gt;2 -->
<g id="edge30" class="edge"><title>4&#45;&gt;2</title>
<path fill="none" stroke="black" d="M195.491,-215.871C195.491,-191.67 195.491,-147.211 195.491,-118.393"/>
<polygon fill="black" stroke="black" points="198.991,-118.189 195.491,-108.189 191.991,-118.189 198.991,-118.189"/>
</g>
<!-- 6&#45;&gt;1 -->
<g id="edge33" class="edge"><title>6&#45;&gt;1</title>
<path fill="none" stroke="black" d="M500.15,-216.153C504.356,-197.656 508.493,-167.467 498.491,-144 473.425,-85.1898 403.536,-48.4732 361.582,-31.057"/>
<polygon fill="black" stroke="black" points="362.652,-27.7151 352.068,-27.239 360.045,-34.2115 362.652,-27.7151"/>
</g>
<!-- 6&#45;&gt;2 -->
<g id="edge34" class="edge"><title>6&#45;&gt;2</title>
<path fill="none" stroke="black" d="M497.006,-215.969C497.782,-195.854 495.709,-162.764 476.491,-144 442.352,-110.668 301.06,-97.5104 232.772,-93.0232"/>
<polygon fill="black" stroke="black" points="232.667,-89.5098 222.467,-92.3758 232.228,-96.496 232.667,-89.5098"/>
</g>
<!-- 6&#45;&gt;3 -->
<g id="edge35" class="edge"><title>6&#45;&gt;3</title>
<path fill="none" stroke="black" d="M483.557,-217.811C476.278,-208.546 466.828,-196.52 458.637,-186.094"/>
<polygon fill="black" stroke="black" points="461.332,-183.86 452.402,-178.159 455.828,-188.185 461.332,-183.86"/>
</g>
<!-- 20 -->
<g id="node9" class="node"><title>20</title>
<ellipse fill="none" stroke="black" cx="250.491" cy="-306" rx="27" ry="18"/>
<text text-anchor="middle" x="250.491" y="-302.3" font-family="Times,serif" font-size="14.00">20</text>
</g>
<!-- 20&#45;&gt;10 -->
<g id="edge11" class="edge"><title>20&#45;&gt;10</title>
<path fill="none" stroke="black" d="M228.238,-295.559C199.62,-283.418 149.733,-262.254 117.163,-248.437"/>
<polygon fill="black" stroke="black" points="118.227,-245.086 107.654,-244.402 115.493,-251.53 118.227,-245.086"/>
</g>
<!-- 20&#45;&gt;1 -->
<g id="edge10" class="edge"><title>20&#45;&gt;1</title>
<path fill="none" stroke="black" d="M255.137,-287.966C268.197,-240.079 305.315,-103.98 321.168,-45.8523"/>
<polygon fill="black" stroke="black" points="324.615,-46.5134 323.87,-35.9448 317.862,-44.6716 324.615,-46.5134"/>
</g>
<!-- 20&#45;&gt;2 -->
<g id="edge12" class="edge"><title>20&#45;&gt;2</title>
<path fill="none" stroke="black" d="M247.202,-287.856C243.666,-269.874 237.709,-240.829 231.491,-216 222.909,-181.727 211.371,-142.661 203.696,-117.46"/>
<polygon fill="black" stroke="black" points="207.037,-116.417 200.761,-107.881 200.344,-118.468 207.037,-116.417"/>
</g>
<!-- 20&#45;&gt;3 -->
<g id="edge13" class="edge"><title>20&#45;&gt;3</title>
<path fill="none" stroke="black" d="M268.025,-291.896C301.761,-266.682 375.826,-211.329 415.013,-182.041"/>
<polygon fill="black" stroke="black" points="417.359,-184.658 423.274,-175.868 413.168,-179.051 417.359,-184.658"/>
</g>
<!-- 20&#45;&gt;5 -->
<g id="edge15" class="edge"><title>20&#45;&gt;5</title>
<path fill="none" stroke="black" d="M225.465,-299.244C172.829,-287.024 55.0357,-259.031 49.4911,-252 35.8449,-234.695 36.7803,-209.055 40.2869,-189.735"/>
<polygon fill="black" stroke="black" points="43.7547,-190.255 42.4233,-179.744 36.9095,-188.791 43.7547,-190.255"/>
</g>
<!-- 20&#45;&gt;4 -->
<g id="edge14" class="edge"><title>20&#45;&gt;4</title>
<path fill="none" stroke="black" d="M238.557,-289.811C231.278,-280.546 221.828,-268.52 213.637,-258.094"/>
<polygon fill="black" stroke="black" points="216.332,-255.86 207.402,-250.159 210.828,-260.185 216.332,-255.86"/>
</g>
<!-- 20&#45;&gt;6 -->
<g id="edge16" class="edge"><title>20&#45;&gt;6</title>
<path fill="none" stroke="black" d="M274.878,-298.032C318.813,-285.479 411.339,-259.043 461.474,-244.719"/>
<polygon fill="black" stroke="black" points="462.549,-248.052 471.202,-241.94 460.626,-241.322 462.549,-248.052"/>
</g>
<!-- 41 -->
<g id="node10" class="node"><title>41</title>
<ellipse fill="none" stroke="black" cx="222.491" cy="-378" rx="27" ry="18"/>
<text text-anchor="middle" x="222.491" y="-374.3" font-family="Times,serif" font-size="14.00">41</text>
</g>
<!-- 41&#45;&gt;10 -->
<g id="edge21" class="edge"><title>41&#45;&gt;10</title>
<path fill="none" stroke="black" d="M196.693,-372.486C169.553,-366.344 127.635,-352.65 104.491,-324 90.4828,-306.659 86.1443,-281.398 85.0718,-262.215"/>
<polygon fill="black" stroke="black" points="88.5639,-261.892 84.7701,-252 81.5669,-262.099 88.5639,-261.892"/>
</g>
<!-- 41&#45;&gt;1 -->
<g id="edge20" class="edge"><title>41&#45;&gt;1</title>
<path fill="none" stroke="black" d="M249.509,-377.054C301.296,-376.078 416.809,-368.604 500.491,-324 549.58,-297.835 588.491,-290.627 588.491,-235 588.491,-235 588.491,-235 588.491,-161 588.491,-60.5062 437.03,-30.6941 365.312,-22.2107"/>
<polygon fill="black" stroke="black" points="365.66,-18.728 355.336,-21.108 364.891,-25.6857 365.66,-18.728"/>
</g>
<!-- 41&#45;&gt;2 -->
<g id="edge23" class="edge"><title>41&#45;&gt;2</title>
<path fill="none" stroke="black" d="M195.421,-376.78C156.473,-374.949 84.8814,-365.678 44.4911,-324 -1.20258,-276.849 17.7862,-245.357 11.4911,-180 9.95706,-164.074 1.8697,-156.784 11.4911,-144 29.2303,-120.43 110.808,-104.068 159.184,-96.2476"/>
<polygon fill="black" stroke="black" points="159.923,-99.6746 169.258,-94.6647 158.836,-92.7594 159.923,-99.6746"/>
</g>
<!-- 41&#45;&gt;3 -->
<g id="edge25" class="edge"><title>41&#45;&gt;3</title>
<path fill="none" stroke="black" d="M249.615,-376.971C315.762,-375.187 483.463,-359.841 531.491,-252 538,-237.384 539.465,-229.872 531.491,-216 519.354,-194.886 495.211,-181.396 474.841,-173.311"/>
<polygon fill="black" stroke="black" points="475.807,-169.937 465.213,-169.767 473.389,-176.506 475.807,-169.937"/>
</g>
<!-- 41&#45;&gt;5 -->
<g id="edge27" class="edge"><title>41&#45;&gt;5</title>
<path fill="none" stroke="black" d="M196.851,-371.896C167.329,-365.013 118.537,-350.456 84.4911,-324 53.5262,-299.939 45.3846,-289.367 33.4911,-252 26.9172,-231.346 31.5624,-206.974 37.2071,-188.961"/>
<polygon fill="black" stroke="black" points="40.5459,-190.015 40.4745,-179.42 33.9234,-187.747 40.5459,-190.015"/>
</g>
<!-- 41&#45;&gt;13 -->
<g id="edge22" class="edge"><title>41&#45;&gt;13</title>
<path fill="none" stroke="black" d="M244.54,-367.414C272.403,-355.299 320.535,-334.372 352.195,-320.607"/>
<polygon fill="black" stroke="black" points="353.676,-323.78 361.451,-316.583 350.885,-317.36 353.676,-323.78"/>
</g>
<!-- 41&#45;&gt;4 -->
<g id="edge26" class="edge"><title>41&#45;&gt;4</title>
<path fill="none" stroke="black" d="M219.234,-359.871C214.633,-335.67 206.179,-291.211 200.7,-262.393"/>
<polygon fill="black" stroke="black" points="204.066,-261.359 198.759,-252.189 197.189,-262.667 204.066,-261.359"/>
</g>
<!-- 41&#45;&gt;6 -->
<g id="edge28" class="edge"><title>41&#45;&gt;6</title>
<path fill="none" stroke="black" d="M249.354,-374.834C289.256,-370.555 365.294,-358.238 419.491,-324 445.378,-307.647 467.124,-279.705 480.633,-259.486"/>
<polygon fill="black" stroke="black" points="483.579,-261.376 486.076,-251.08 477.703,-257.572 483.579,-261.376"/>
</g>
<!-- 41&#45;&gt;20 -->
<g id="edge24" class="edge"><title>41&#45;&gt;20</title>
<path fill="none" stroke="black" d="M229.127,-360.411C232.405,-352.216 236.435,-342.14 240.109,-332.955"/>
<polygon fill="black" stroke="black" points="243.439,-334.055 243.903,-323.47 236.939,-331.455 243.439,-334.055"/>
</g>
<!-- 8 -->
<g id="node11" class="node"><title>8</title>
<ellipse fill="none" stroke="black" cx="140.491" cy="-306" rx="27" ry="18"/>
<text text-anchor="middle" x="140.491" y="-302.3" font-family="Times,serif" font-size="14.00">8</text>
</g>
<!-- 41&#45;&gt;8 -->
<g id="edge29" class="edge"><title>41&#45;&gt;8</title>
<path fill="none" stroke="black" d="M206.291,-363.17C194.308,-352.942 177.8,-338.849 164.316,-327.338"/>
<polygon fill="black" stroke="black" points="166.257,-324.394 156.379,-320.563 161.712,-329.717 166.257,-324.394"/>
</g>
<!-- 8&#45;&gt;1 -->
<g id="edge36" class="edge"><title>8&#45;&gt;1</title>
<path fill="none" stroke="black" d="M115.233,-298.763C90.9297,-291.49 54.8189,-277.131 33.4911,-252 1.79443,-214.651 -9.96479,-188.037 11.4911,-144 61.8732,-40.5937 218.591,-22.1569 291.053,-19.2696"/>
<polygon fill="black" stroke="black" points="291.226,-22.7659 301.109,-18.9481 291.003,-15.7695 291.226,-22.7659"/>
</g>
<!-- 8&#45;&gt;2 -->
<g id="edge37" class="edge"><title>8&#45;&gt;2</title>
<path fill="none" stroke="black" d="M143.78,-287.856C147.317,-269.874 153.274,-240.829 159.491,-216 168.073,-181.727 179.611,-142.661 187.286,-117.46"/>
<polygon fill="black" stroke="black" points="190.638,-118.468 190.221,-107.881 183.945,-116.417 190.638,-118.468"/>
</g>
<!-- 8&#45;&gt;4 -->
<g id="edge38" class="edge"><title>8&#45;&gt;4</title>
<path fill="none" stroke="black" d="M152.425,-289.811C159.705,-280.546 169.154,-268.52 177.346,-258.094"/>
<polygon fill="black" stroke="black" points="180.154,-260.185 183.58,-250.159 174.65,-255.86 180.154,-260.185"/>
</g>
</g>
</svg>
